<svg width="21" height="20" viewBox="0 0 21 20" fill="none" xmlns="http://www.w3.org/2000/svg">
<path d="M19.2509 10.1941C19.2509 9.47471 19.1913 8.94971 19.0624 8.40527H10.6794V11.6525H15.6C15.5009 12.4594 14.9652 13.6747 13.7747 14.4913L13.758 14.6L16.4085 16.6123L16.5921 16.6303C18.2786 15.1039 19.2509 12.858 19.2509 10.1941Z" fill="#4285F4"/>
<path d="M10.6789 18.75C13.0896 18.75 15.1133 17.9722 16.5915 16.6305L13.7741 14.4916C13.0201 15.0068 12.0082 15.3666 10.6789 15.3666C8.31779 15.3666 6.31385 13.8402 5.5995 11.7305L5.49479 11.7392L2.73874 13.8295L2.7027 13.9277C4.17093 16.786 7.1868 18.75 10.6789 18.75Z" fill="#34A853"/>
<path d="M5.60002 11.7307C5.41153 11.1863 5.30245 10.6029 5.30245 10.0002C5.30245 9.39734 5.41153 8.81403 5.5901 8.2696L5.58511 8.15365L2.79451 6.02979L2.70321 6.07235C2.09808 7.25847 1.75085 8.59044 1.75085 10.0002C1.75085 11.4099 2.09808 12.7418 2.70321 13.9279L5.60002 11.7307Z" fill="#FBBC05"/>
<path d="M10.6789 4.63331C12.3555 4.63331 13.4864 5.34303 14.1313 5.93612L16.6511 3.525C15.1035 2.11528 13.0896 1.25 10.6789 1.25C7.18682 1.25 4.17094 3.21387 2.7027 6.07218L5.5896 8.26944C6.31387 6.15972 8.31782 4.63331 10.6789 4.63331Z" fill="#EB4335"/>
</svg>
