<svg width="372" height="196" viewBox="0 0 372 196" fill="none" xmlns="http://www.w3.org/2000/svg">
<ellipse cx="220.649" cy="108.751" rx="15.9056" ry="11.7199" transform="rotate(5.37588 220.649 108.751)" fill="#4EB4E1" fill-opacity="0.2"/>
<ellipse cx="254.243" cy="53.2721" rx="13.2209" ry="6.89368" transform="rotate(50.8505 254.243 53.2721)" fill="#4EB4E1" fill-opacity="0.2"/>
<path d="M128.551 -8.54998C137.759 -10.2243 157.013 -3.52811 162.036 5.68135C167.059 14.8908 129.388 81.8611 114.51 80.3147C99.6326 78.7683 79.9954 62.5461 79.9963 53.7868C79.9972 45.0275 119.343 -6.87565 128.551 -8.54998Z" fill="#4EB4E1" fill-opacity="0.2"/>
<path d="M57.706 -6.88119C86.4107 -12.8262 104.141 -12.9613 140.582 -5.20703L127.188 -0.184418C107.394 -5.25425 90.3748 -6.31488 57.706 -6.88119Z" fill="#4EB4E1" fill-opacity="0.2"/>
<path d="M23.7758 34.2203C49.6011 48.0898 56.2523 52.4631 93.3933 55.402L87.5333 46.193C67.115 45.4191 56.5593 42.8445 23.7758 34.2203Z" fill="#4EB4E1" fill-opacity="0.2"/>
<path d="M-57 95.5706C17.574 97.1652 138.543 179.515 194.835 203.217C146.443 173.59 139.53 140.319 130.642 100.816C45.4404 62.4182 1.53689 67.8332 -57 95.5706Z" fill="#4EB4E1" fill-opacity="0.2"/>
<path d="M307.42 -33.4959C257.053 -51.9981 208.662 -49.2974 175.084 6.00763C241.603 6.76337 285.693 39.5853 285.693 78.1012C285.694 116.617 254.091 135.382 222.488 135.382C190.885 135.382 141.505 105.754 141.505 105.754C141.505 105.754 152.369 190.378 217.55 204.513C282.731 218.649 337.048 191.673 362.725 123.53C388.403 55.3872 357.787 -14.9938 307.42 -33.4959Z" fill="#4EB4E1" fill-opacity="0.2"/>
</svg>
