<svg width="41" height="28" viewBox="0 0 41 28" fill="none" xmlns="http://www.w3.org/2000/svg">
<path d="M11.9183 1.96077C17.1711 -0.11965 26.618 1.05066 32.8211 3.64859C27.6644 2.45151 25.5465 3.46436 23.4286 5.12192C20.2844 3.54925 17.7853 2.63564 11.9183 1.96077Z" fill="#4EB4E1"/>
<ellipse cx="26.3881" cy="17.8392" rx="1.48304" ry="1.09276" transform="rotate(5.37588 26.3881 17.8392)" fill="#4EB4E1"/>
<ellipse cx="29.5203" cy="12.666" rx="1.23272" ry="0.642767" transform="rotate(50.8505 29.5203 12.666)" fill="#4EB4E1"/>
<path d="M17.8008 6.90206C18.6593 6.74594 20.4546 7.3703 20.9229 8.22899C21.3913 9.08768 17.8789 15.332 16.4916 15.1878C15.1044 15.0436 13.2735 13.5311 13.2735 12.7143C13.2736 11.8976 16.9422 7.05817 17.8008 6.90206Z" fill="#4EB4E1"/>
<path d="M11.1952 7.05783C13.8717 6.50352 15.5248 6.49093 18.9226 7.21393L17.6737 7.68224C15.8282 7.20953 14.2413 7.11064 11.1952 7.05783Z" fill="#4EB4E1"/>
<path d="M8.03158 10.8898C10.4395 12.1829 11.0597 12.5907 14.5227 12.8647L13.9763 12.0061C12.0725 11.9339 11.0883 11.6939 8.03158 10.8898Z" fill="#4EB4E1"/>
<path d="M0.5 16.6104C7.45329 16.759 18.7324 24.4374 23.9811 26.6474C19.4691 23.8849 18.8245 20.7827 17.9957 17.0994C10.0515 13.5192 5.95798 14.0241 0.5 16.6104Z" fill="#4EB4E1"/>
<path d="M34.4786 4.57606C29.7824 2.85091 25.2703 3.10273 22.1395 8.25937C28.3418 8.32984 32.4527 11.3902 32.4528 14.9814C32.4528 18.5726 29.5061 20.3223 26.5595 20.3223C23.6128 20.3223 19.0087 17.5598 19.0087 17.5598C19.0087 17.5598 20.0216 25.4501 26.0991 26.7681C32.1765 28.0861 37.2411 25.5708 39.6352 19.2172C42.0294 12.8635 39.1748 6.3012 34.4786 4.57606Z" fill="#4EB4E1"/>
</svg>
