<svg width="18" height="21" viewBox="0 0 18 21" fill="none" xmlns="http://www.w3.org/2000/svg">
<path d="M8.99999 0C10.8613 0 11.7919 0 12.5451 0.244717C13.8631 0.672979 14.9347 1.6252 15.5195 2.86114C14.8993 2.59476 14.202 2.45008 13.4019 2.3672C12.2703 2.24999 10.8487 2.24999 9.04282 2.25H8.95718C7.15135 2.24999 5.72979 2.24999 4.59818 2.36719C3.79804 2.45006 3.10076 2.59474 2.4805 2.86114C3.0653 1.6252 4.13685 0.672979 5.45491 0.244717C6.20807 0 7.13871 0 8.99999 0Z" fill="white"/>
<path fill-rule="evenodd" clip-rule="evenodd" d="M0.954915 5.06107C0 6.3754 0 8.25027 0 12C0 15.7497 0 17.6246 0.954915 18.9389C1.26331 19.3634 1.6366 19.7367 2.06107 20.0451C3.3754 21 5.25027 21 9 21C12.7497 21 14.6246 21 15.9389 20.0451C16.3634 19.7367 16.7367 19.3634 17.0451 18.9389C18 17.6246 18 15.7497 18 12C18 8.25027 18 6.3754 17.0451 5.06107C16.7367 4.6366 16.3634 4.26331 15.9389 3.95491C15.9159 3.93821 15.8928 3.92181 15.8694 3.90569C14.5584 3 12.6842 3 9 3C5.31596 3 3.44167 3 2.13068 3.9056C2.1073 3.92175 2.0841 3.93819 2.06107 3.95491C1.6366 4.26331 1.26331 4.6366 0.954915 5.06107ZM5 13.25C4.58579 13.25 4.25 13.5858 4.25 14C4.25 14.4142 4.58579 14.75 5 14.75H13C13.4142 14.75 13.75 14.4142 13.75 14C13.75 13.5858 13.4142 13.25 13 13.25H5Z" fill="white"/>
</svg>
