<svg width="20" height="20" viewBox="0 0 20 20" fill="none" xmlns="http://www.w3.org/2000/svg">
<path fill-rule="evenodd" clip-rule="evenodd" d="M10.0453 0.25C11.8818 0.249992 13.3214 0.249986 14.4635 0.373728C15.6291 0.500006 16.5734 0.762324 17.3798 1.34815C17.8679 1.70281 18.2972 2.13209 18.6518 2.62024C19.2377 3.42656 19.5 4.37094 19.6263 5.53648C19.75 6.67859 19.75 8.11824 19.75 9.95473V10.0453C19.75 11.8818 19.75 13.3214 19.6263 14.4635C19.5 15.6291 19.2377 16.5734 18.6518 17.3798C18.2972 17.8679 17.8679 18.2972 17.3798 18.6518C16.5734 19.2377 15.6291 19.5 14.4635 19.6263C13.3214 19.75 11.8818 19.75 10.0453 19.75H9.95465C8.11817 19.75 6.67859 19.75 5.53648 19.6263C4.37094 19.5 3.42656 19.2377 2.62024 18.6518C2.13209 18.2972 1.70281 17.8679 1.34815 17.3798C0.762324 16.5734 0.500006 15.6291 0.373728 14.4635C0.249986 13.3214 0.249992 11.8818 0.25 10.0453V9.95475C0.249992 8.11822 0.249986 6.67861 0.373728 5.53648C0.500006 4.37094 0.762324 3.42656 1.34815 2.62024C1.70281 2.13209 2.13209 1.70281 2.62024 1.34815C3.42656 0.762324 4.37094 0.500006 5.53648 0.373728C6.67861 0.249986 8.11821 0.249992 9.95474 0.25H10.0453ZM10.75 5C10.75 4.58579 10.4142 4.25 10 4.25C9.58579 4.25 9.25 4.58579 9.25 5V15C9.25 15.4142 9.58579 15.75 10 15.75C10.4142 15.75 10.75 15.4142 10.75 15V5ZM14.75 9C14.75 8.58579 14.4142 8.25 14 8.25C13.5858 8.25 13.25 8.58579 13.25 9V15C13.25 15.4142 13.5858 15.75 14 15.75C14.4142 15.75 14.75 15.4142 14.75 15V9ZM6.75 11C6.75 10.5858 6.41421 10.25 6 10.25C5.58579 10.25 5.25 10.5858 5.25 11V15C5.25 15.4142 5.58579 15.75 6 15.75C6.41421 15.75 6.75 15.4142 6.75 15V11Z" fill="#A7ADB3"/>
</svg>
