<svg width="20" height="20" viewBox="0 0 20 20" fill="none" xmlns="http://www.w3.org/2000/svg">
<path fill-rule="evenodd" clip-rule="evenodd" d="M9.79526 1.29118e-07C11.6318 -7.9044e-06 13.0714 -1.42008e-05 14.2135 0.123728C15.3791 0.250006 16.3234 0.512324 17.1298 1.09815C17.6179 1.45281 18.0472 1.88209 18.4018 2.37024C18.9877 3.17656 19.25 4.12094 19.3763 5.28648C19.5 6.42859 19.5 7.86824 19.5 9.70473V9.79535C19.5 11.6318 19.5 13.0714 19.3763 14.2135C19.25 15.3791 18.9877 16.3234 18.4018 17.1298C18.0472 17.6179 17.6179 18.0472 17.1298 18.4018C16.3234 18.9877 15.3791 19.25 14.2135 19.3763C13.0714 19.5 11.6318 19.5 9.79527 19.5H9.70465C7.86817 19.5 6.42859 19.5 5.28648 19.3763C4.12094 19.25 3.17656 18.9877 2.37024 18.4018C1.88209 18.0472 1.45281 17.6179 1.09815 17.1298C0.512324 16.3234 0.250006 15.3791 0.123728 14.2135C-1.42008e-05 13.0714 -7.9044e-06 11.6318 1.29118e-07 9.79526V9.70475C-7.9044e-06 7.86822 -1.42008e-05 6.42861 0.123728 5.28648C0.250006 4.12094 0.512324 3.17656 1.09815 2.37024C1.45281 1.88209 1.88209 1.45281 2.37024 1.09815C3.17656 0.512324 4.12094 0.250006 5.28648 0.123728C6.42861 -1.42008e-05 7.86821 -7.9044e-06 9.70474 1.29118e-07H9.79526ZM10.5 4.75C10.5 4.33579 10.1642 4 9.75 4C9.33579 4 9 4.33579 9 4.75V14.75C9 15.1642 9.33579 15.5 9.75 15.5C10.1642 15.5 10.5 15.1642 10.5 14.75V4.75ZM14.5 8.75C14.5 8.33579 14.1642 8 13.75 8C13.3358 8 13 8.33579 13 8.75V14.75C13 15.1642 13.3358 15.5 13.75 15.5C14.1642 15.5 14.5 15.1642 14.5 14.75V8.75ZM6.5 10.75C6.5 10.3358 6.16421 10 5.75 10C5.33579 10 5 10.3358 5 10.75V14.75C5 15.1642 5.33579 15.5 5.75 15.5C6.16421 15.5 6.5 15.1642 6.5 14.75V10.75Z" fill="white"/>
</svg>
