<svg width="24" height="16" viewBox="0 0 24 16" fill="none" xmlns="http://www.w3.org/2000/svg">
<path d="M6.85095 0.640916C10.0026 -0.607337 15.6708 0.094851 19.3926 1.65361C16.2987 0.935361 15.0279 1.54307 13.7572 2.5376C11.8706 1.594 10.3712 1.04584 6.85095 0.640916Z" fill="white"/>
<ellipse cx="15.5329" cy="10.1678" rx="0.889823" ry="0.655659" transform="rotate(5.37588 15.5329 10.1678)" fill="white"/>
<ellipse cx="17.4121" cy="7.06414" rx="0.73963" ry="0.38566" transform="rotate(50.8505 17.4121 7.06414)" fill="white"/>
<path d="M10.3804 3.60549C10.8955 3.51182 11.9727 3.88644 12.2537 4.40165C12.5347 4.91687 10.4273 8.66346 9.59494 8.57694C8.76261 8.49043 7.66403 7.5829 7.66408 7.09287C7.66413 6.60284 9.86528 3.69916 10.3804 3.60549Z" fill="white"/>
<path d="M6.41708 3.69876C8.02294 3.36617 9.01486 3.35862 11.0535 3.79242L10.3042 4.07341C9.19684 3.78978 8.24471 3.73045 6.41708 3.69876Z" fill="white"/>
<path d="M4.51881 5.99831C5.96358 6.77422 6.33568 7.01888 8.4135 7.18329L8.08567 6.66811C6.94338 6.62481 6.35285 6.48078 4.51881 5.99831Z" fill="white"/>
<path d="M0 9.43018C4.17197 9.51939 10.9394 14.1264 14.0887 15.4524C11.3814 13.7949 10.9947 11.9336 10.4975 9.7236C5.73093 7.5755 3.27479 7.87844 0 9.43018Z" fill="white"/>
<path d="M20.3872 2.20989C17.5694 1.17481 14.8622 1.3259 12.9837 4.41988C16.7051 4.46216 19.1716 6.29835 19.1717 8.45309C19.1717 10.6078 17.4037 11.6576 15.6357 11.6576C13.8677 11.6576 11.1052 10.0001 11.1052 10.0001C11.1052 10.0001 11.7129 14.7343 15.3594 15.5251C19.0059 16.3159 22.0447 14.8068 23.4811 10.9946C24.9176 7.18237 23.2049 3.24498 20.3872 2.20989Z" fill="white"/>
</svg>
