<svg width="18" height="18" viewBox="0 0 18 18" fill="none" xmlns="http://www.w3.org/2000/svg">
<path fill-rule="evenodd" clip-rule="evenodd" d="M0 9C0 5.25027 0 3.3754 0.954915 2.06107C1.26331 1.6366 1.6366 1.26331 2.06107 0.954915C3.3754 0 5.25027 0 9 0C9.83894 0 10.584 0 11.25 0.0106945L11.25 0.0808201C11.2499 0.932837 11.2499 1.45182 11.3208 1.8995C11.7105 4.35988 13.6401 6.28952 16.1005 6.67921C16.5482 6.75011 17.0672 6.75007 17.9192 6.75L17.9893 6.75C18 7.41596 18 8.16106 18 9C18 12.7497 18 14.6246 17.0451 15.9389C16.7367 16.3634 16.3634 16.7367 15.9389 17.0451C14.6246 18 12.7497 18 9 18C5.25027 18 3.3754 18 2.06107 17.0451C1.6366 16.7367 1.26331 16.3634 0.954915 15.9389C0 14.6246 0 12.7497 0 9ZM5 4.25C4.58579 4.25 4.25 4.58579 4.25 5C4.25 5.41421 4.58579 5.75 5 5.75H8C8.41421 5.75 8.75 5.41421 8.75 5C8.75 4.58579 8.41421 4.25 8 4.25H5ZM5 8.25C4.58579 8.25 4.25 8.58579 4.25 9C4.25 9.41421 4.58579 9.75 5 9.75H13C13.4142 9.75 13.75 9.41421 13.75 9C13.75 8.58579 13.4142 8.25 13 8.25H5ZM5 12.25C4.58579 12.25 4.25 12.5858 4.25 13C4.25 13.4142 4.58579 13.75 5 13.75H8C8.41421 13.75 8.75 13.4142 8.75 13C8.75 12.5858 8.41421 12.25 8 12.25H5Z" fill="#A7ADB3"/>
<path d="M12.8023 1.66485C12.7535 1.35646 12.7501 0.975676 12.75 0.0653364C14.1896 0.159744 15.1622 0.390566 15.9389 0.954915C16.3634 1.26331 16.7367 1.6366 17.0451 2.06107C17.6094 2.83783 17.8403 3.81037 17.9347 5.25C17.0243 5.24987 16.6435 5.24652 16.3352 5.19768C14.5166 4.90965 13.0904 3.48339 12.8023 1.66485Z" fill="#A7ADB3"/>
</svg>
